<?xml version="1.0" encoding="UTF-8" standalone="no"?>
<svg width="53px" height="84px" viewBox="0 0 53 84" version="1.1" xmlns="http://www.w3.org/2000/svg" xmlns:xlink="http://www.w3.org/1999/xlink">
    <title></title>
    <desc></desc>
    <defs></defs>
    <g>
        <path d="M49.9728951,34.2429482 C48.6771634,31.302898 46.884078,28.801692 44.5950902,26.7409784 C42.3046512,24.6802648 39.6053829,23.0925965 36.4954195,21.975707 C33.3850415,20.8598477 30.0155171,20.301506 26.3870537,20.301506 C22.7581756,20.301506 19.3888585,20.8598477 16.2786878,21.975707 C13.1683098,23.0925965 10.4794073,24.6802648 8.21135854,26.7409784 C5.94330976,28.801692 4.16162683,31.302898 2.8656878,34.2429482 C1.56954146,37.1842347 0.92167561,40.4790688 0.92167561,44.1276568 C0.92167561,47.7770688 1.56954146,51.1044558 2.8656878,54.1087874 C4.16162683,57.1141492 5.94330976,59.6790186 8.21135854,61.8038075 C10.4794073,63.9290085 13.1683098,65.5710688 16.2786878,66.7301945 C19.3888585,67.8893201 22.7581756,68.4686769 26.3870537,68.4686769 C30.0155171,68.4686769 33.3850415,67.8893201 36.4954195,66.7301945 C39.6053829,65.5710688 42.3046512,63.9290085 44.5950902,61.8038075 C46.884078,59.6790186 48.6771634,57.1141492 49.9728951,54.1087874 C51.2688341,51.1044558 51.9171146,47.7770688 51.9171146,44.1276568 C51.9171146,40.4790688 51.2688341,37.1842347 49.9728951,34.2429482 Z M24.9857976,57.8884106 L19.2889317,52.2258779 L13.5912366,57.8873804 L7.68829756,52.0204658 L19.2899683,40.4928729 L30.8895659,52.0223201 L24.9857976,57.8884106 Z M39.7712366,43.4269482 L34.0743707,37.7644156 L28.3764683,43.4261241 L22.4737366,37.5590035 L34.0754073,26.0312045 L45.6750049,37.5608578 L39.7712366,43.4269482 Z M3.86636585,72.6979402 L49.500378,72.6979402 L49.500378,82.1413322 L3.86636585,82.1413322 L3.86636585,72.6979402 Z M20.2950622,5.2891809 L14.9684646,-0.0051758794 L9.64083049,5.28835678 L3.08173293,11.8059146 L9.26952561,17.9563266 L14.967428,12.2948241 L20.6642939,17.9571508 L26.8533305,11.8075628 L20.2950622,5.2891809 Z" fill="#8ac0b9"></path>
    </g>
</svg>